<?xml version="1.0" encoding="UTF-8"?>
<svg width="290px" height="64px" viewBox="0 0 290 64" version="1.1" xmlns="http://www.w3.org/2000/svg" xmlns:xlink="http://www.w3.org/1999/xlink">
    <!-- Generator: Sketch 63.1 (92452) - https://sketch.com -->
    <title>Artboard</title>
    <desc>Created with Sketch.</desc>
    <defs>
        <path d="M80.978,51 L80.978,38.598 L87.921,13.9 L83.787,13.9 L78.911,33.033 L73.982,13.9 L69.848,13.9 L76.844,38.598 L76.844,51 L80.978,51 Z M96.5865,51.795 C98.9715,51.795 100.808833,50.9911667 102.0985,49.3835 C103.388167,47.7758333 104.033,44.8696667 104.033,40.665 L104.033,40.665 L104.033,32.715 C104.033,28.5103333 103.388167,25.6041667 102.0985,23.9965 C100.808833,22.3888333 98.9715,21.585 96.5865,21.585 C94.2015,21.585 92.3641667,22.3888333 91.0745,23.9965 C89.7848333,25.6041667 89.14,28.5103333 89.14,32.715 L89.14,32.715 L89.14,40.665 C89.14,44.8696667 89.7848333,47.7758333 91.0745,49.3835 C92.3641667,50.9911667 94.2015,51.795 96.5865,51.795 Z M96.613,48.509 C94.3163333,48.509 93.168,46.1416667 93.168,41.407 L93.168,41.407 L93.168,31.973 C93.168,27.2383333 94.3163333,24.871 96.613,24.871 C98.839,24.871 99.952,27.2383333 99.952,31.973 L99.952,31.973 L99.952,41.407 C99.952,46.1416667 98.839,48.509 96.613,48.509 Z M115.481,51.795 C118.095667,51.795 119.809333,50.364 120.622,47.502 L120.622,47.502 L121.47,51 L123.961,51 L123.961,22.38 L119.933,22.38 L119.933,43.315 C119.791667,46.7423333 118.643333,48.456 116.488,48.456 C115.534,48.456 114.8185,48.1026667 114.3415,47.396 C113.8645,46.6893333 113.626,45.3643333 113.626,43.421 L113.626,43.421 L113.626,22.38 L109.598,22.38 L109.598,43.103 C109.598,46.495 110.092667,48.7916667 111.082,49.993 C112.071333,51.1943333 113.537667,51.795 115.481,51.795 Z M137.37,51 L137.37,17.292 L142.511,17.292 L142.511,13.9 L128.042,13.9 L128.042,17.292 L133.183,17.292 L133.183,51 L137.37,51 Z M151.7065,51.795 C154.0915,51.795 155.928833,50.9911667 157.2185,49.3835 C158.508167,47.7758333 159.153,44.8696667 159.153,40.665 L159.153,40.665 L159.153,32.715 C159.153,28.5103333 158.508167,25.6041667 157.2185,23.9965 C155.928833,22.3888333 154.0915,21.585 151.7065,21.585 C149.3215,21.585 147.484167,22.3888333 146.1945,23.9965 C144.904833,25.6041667 144.26,28.5103333 144.26,32.715 L144.26,32.715 L144.26,40.665 C144.26,44.8696667 144.904833,47.7758333 146.1945,49.3835 C147.484167,50.9911667 149.3215,51.795 151.7065,51.795 Z M151.733,48.509 C149.436333,48.509 148.288,46.1416667 148.288,41.407 L148.288,41.407 L148.288,31.973 C148.288,27.2383333 149.436333,24.871 151.733,24.871 C153.959,24.871 155.072,27.2383333 155.072,31.973 L155.072,31.973 L155.072,41.407 C155.072,46.1416667 153.959,48.509 151.733,48.509 Z M173.94,61.335 C178.321333,61.335 180.512,59.1178333 180.512,54.6835 C180.512,50.2491667 178.321333,48.032 173.94,48.032 L173.94,48.032 L170.654,48.032 C168.710667,48.032 167.739,46.972 167.739,44.852 C167.739,43.6506667 168.127667,42.7673333 168.905,42.202 C169.717667,42.414 170.618667,42.52 171.608,42.52 C174.152,42.52 176.0335,41.7956667 177.2525,40.347 C178.4715,38.8983333 179.081,36.213 179.081,32.291 L179.081,32.291 L179.081,31.814 C179.081,29.3053333 178.780667,27.2913333 178.18,25.772 L178.18,25.772 L181.307,25.772 L181.307,21.585 L180.724,21.585 L176.59,23.228 C175.388667,22.1326667 173.630833,21.585 171.3165,21.585 C169.002167,21.585 167.244333,22.3093333 166.043,23.758 C164.841667,25.2066667 164.241,27.892 164.241,31.814 L164.241,31.814 L164.241,32.291 C164.241,36.7783333 165.106667,39.7463333 166.838,41.195 C165.318667,41.9723333 164.559,43.2443333 164.559,45.011 C164.559,46.7776667 164.983,47.9966667 165.831,48.668 C163.781667,49.622 162.757,51.6183333 162.757,54.657 C162.757,59.109 164.93,61.335 169.276,61.335 L169.276,61.335 L173.94,61.335 Z M171.6875,39.499 C170.609833,39.499 169.770667,39.0573333 169.17,38.174 C168.569333,37.2906667 168.269,35.6476667 168.269,33.245 L168.269,33.245 L168.269,30.86 C168.269,28.4573333 168.569333,26.8143333 169.17,25.931 C169.770667,25.0476667 170.609833,24.606 171.6875,24.606 C172.765167,24.606 173.5955,25.0476667 174.1785,25.931 C174.7615,26.8143333 175.053,28.4573333 175.053,30.86 L175.053,30.86 L175.053,33.245 C175.053,35.6476667 174.7615,37.2906667 174.1785,38.174 C173.5955,39.0573333 172.765167,39.499 171.6875,39.499 Z M174.258,57.943 L168.958,57.943 C167.368,57.943 166.573,56.8388333 166.573,54.6305 C166.573,52.4221667 167.368,51.318 168.958,51.318 L168.958,51.318 L174.258,51.318 C175.848,51.318 176.643,52.4221667 176.643,54.6305 C176.643,56.8388333 175.848,57.943 174.258,57.943 L174.258,57.943 Z M191.5095,51.795 C193.7885,51.795 195.528667,51.1943333 196.73,49.993 C197.931333,48.7916667 198.655667,46.654 198.903,43.58 L198.903,43.58 L195.352,42.997 C195.104667,45.117 194.680667,46.5656667 194.08,47.343 C193.479333,48.1203333 192.631333,48.509 191.536,48.509 C189.274667,48.509 188.144,46.1416667 188.144,41.407 L188.144,41.407 L188.144,38.386 L199.009,38.386 L199.009,32.715 C199.009,28.475 198.390667,25.56 197.154,23.97 C195.917333,22.38 194.097667,21.585 191.695,21.585 C189.292333,21.585 187.4285,22.3888333 186.1035,23.9965 C184.7785,25.6041667 184.116,28.5103333 184.116,32.715 L184.116,32.715 L184.116,40.665 C184.116,44.8696667 184.7785,47.7758333 186.1035,49.3835 C187.4285,50.9911667 189.2305,51.795 191.5095,51.795 Z M194.928,34.994 L188.144,34.994 L188.144,31.973 C188.144,27.2383333 189.292333,24.871 191.589,24.871 C193.815,24.871 194.928,27.2383333 194.928,31.973 L194.928,31.973 L194.928,34.994 Z M210.086,51.795 C211.358,51.795 212.594667,51.424 213.796,50.682 L213.796,50.682 L213.001,47.555 C212.259,48.1203333 211.552333,48.403 210.881,48.403 C209.856333,48.403 209.344,47.4666667 209.344,45.594 L209.344,45.594 L209.344,25.666 L213.107,25.666 L213.107,22.38 L209.344,22.38 L209.344,15.331 L206.906,15.331 L205.475,22.38 L202.666,22.38 L202.666,25.666 L205.316,25.666 L205.316,44.746 C205.316,49.4453333 206.906,51.795 210.086,51.795 Z M221.693,51 L221.693,36.213 C221.763667,28.6516667 223.106333,24.871 225.721,24.871 C227.452333,24.871 228.318,27.0793333 228.318,31.496 L228.318,31.496 L228.318,51 L232.399,51 L232.399,32.927 C232.399,28.6163333 231.913167,25.6483333 230.9415,24.023 C229.969833,22.3976667 228.565333,21.585 226.728,21.585 C224.078,21.585 222.329,22.9806667 221.481,25.772 L221.481,25.772 L221.481,11.78 L217.612,11.78 L217.612,51 L221.693,51 Z M245.3575,51.795 C247.6365,51.795 249.376667,51.1943333 250.578,49.993 C251.779333,48.7916667 252.503667,46.654 252.751,43.58 L252.751,43.58 L249.2,42.997 C248.952667,45.117 248.528667,46.5656667 247.928,47.343 C247.327333,48.1203333 246.479333,48.509 245.384,48.509 C243.122667,48.509 241.992,46.1416667 241.992,41.407 L241.992,41.407 L241.992,38.386 L252.857,38.386 L252.857,32.715 C252.857,28.475 252.238667,25.56 251.002,23.97 C249.765333,22.38 247.945667,21.585 245.543,21.585 C243.140333,21.585 241.2765,22.3888333 239.9515,23.9965 C238.6265,25.6041667 237.964,28.5103333 237.964,32.715 L237.964,32.715 L237.964,40.665 C237.964,44.8696667 238.6265,47.7758333 239.9515,49.3835 C241.2765,50.9911667 243.0785,51.795 245.3575,51.795 Z M248.776,34.994 L241.992,34.994 L241.992,31.973 C241.992,27.2383333 243.140333,24.871 245.437,24.871 C247.663,24.871 248.776,27.2383333 248.776,31.973 L248.776,31.973 L248.776,34.994 Z M262.874,51 L262.874,34.146 C262.909333,28.5633333 264.269667,25.772 266.955,25.772 C267.414333,25.772 267.891333,25.8956667 268.386,26.143 L268.386,26.143 L268.704,21.638 L267.644,21.585 C264.888,21.585 263.156667,23.4753333 262.45,27.256 L262.45,27.256 L261.284,22.38 L258.793,22.38 L258.793,51 L262.874,51 Z" id="path-1"></path>
    </defs>
    <g id="Artboard" stroke="none" stroke-width="1" fill="none" fill-rule="evenodd">
        <g id="YouTogether" transform="translate(10.000000, -1.000000)" fill-rule="nonzero">
            <g>
                <use fill="#000000" xlink:href="#path-1"></use>
                <use stroke="#282828" stroke-width="1.5" fill="#282828" xlink:href="#path-1"></use>
            </g>
            <g id="Group" transform="translate(0.000000, 11.000000)">
                <path d="M62,6.87 C61.28,4.17 59.15,2.04 56.44,1.31 C51.54,0 31.88,0 31.88,0 C31.88,0 12.23,0 7.32,1.31 C4.62,2.03 2.49,4.16 1.76,6.87 C0.45,11.77 0.45,22 0.45,22 C0.45,22 0.45,32.23 1.76,37.13 C2.48,39.83 4.61,41.96 7.32,42.69 C12.23,44 31.88,44 31.88,44 C31.88,44 51.54,44 56.44,42.69 C59.14,41.97 61.27,39.84 62,37.13 C63.31,32.23 63.31,22 63.31,22 C63.31,22 63.31,11.77 62,6.87 Z" id="Path" fill="#FF0000"></path>
                <polygon id="Path" fill="#FFFFFF" points="25.6 31.43 41.93 22 25.6 12.57"></polygon>
            </g>
        </g>
    </g>
</svg>